<?xml version="1.0" encoding="UTF-8"?>
<svg id="Layer_2" data-name="Layer 2" xmlns="http://www.w3.org/2000/svg" viewBox="0 0 1295.48 708.23">
  <defs>
    <style>
      .cls-1 {
        fill: #fff;
      }

      .cls-2 {
        fill: #f1b900;
      }
    </style>
  </defs>
  <g id="Layer_1-2" data-name="Layer 1">
    <g>
      <g>
        <path class="cls-2" d="M132,594.73h-37.5v-25H0v-36.25h132v61.25ZM37.75,633.73v-39h56.75v39h-56.75v38.25h94.25v36.25H0v-74.5h37.75Z"/>
        <path class="cls-2" d="M207.5,569.48v102.5h19v36.25h-75.5v-36.25h18.75v-102.5h-18.75v-36.25h75.5v36.25h-19Z"/>
        <path class="cls-2" d="M382.5,569.48v91h-94.25v47.75h-37.75v-175h94.25v36.25h-56.5v54.5h56.5v-54.5h37.75Z"/>
        <path class="cls-2" d="M597.74,599.73v72.25h-37.75v-36h-94.25v-66.5h37.75v30.25h94.25ZM465.74,708.23v-36.25h94.25v36.25h-94.25ZM503.49,569.48v-36.25h94.25v36.25h-94.25Z"/>
        <path class="cls-2" d="M753.24,569.48v138.75h-37.75v-47.75h-53.5v47.75h-37.75v-175h91.25v36.25h-53.5v54.5h53.5v-54.5h37.75Z"/>
        <path class="cls-2" d="M818.74,569.48v30.5h45.25v36.25h-45.25v72h-37.75v-175h112.5v36.25h-74.75Z"/>
        <path class="cls-2" d="M1039.74,569.48v138.75h-37.75v-47.75h-53.5v47.75h-37.75v-175h91.25v36.25h-53.5v54.5h53.5v-54.5h37.75Z"/>
        <path class="cls-2" d="M1161.74,623.98v36.5h-56.5v47.75h-37.75v-175h94.25v36.25h-56.5v54.5h56.5ZM1161.74,623.98v-54.5h37.75v54.5h-37.75ZM1161.74,708.23v-47.75h37.75v47.75h-37.75Z"/>
        <path class="cls-2" d="M1276.48,569.48v102.5h19v36.25h-75.5v-36.25h18.75v-102.5h-18.75v-36.25h75.5v36.25h-19Z"/>
      </g>
      <path class="cls-1" d="M828.34,242.53h-362.86l29.84-152.07,149.98-25.09,149.58,25.47,33.45,151.68Z"/>
      <path class="cls-2" d="M625.18,130.01v43.32h-43.46v-43.32h43.46Z"/>
      <path class="cls-2" d="M756.29,130.01v43.32h-43.46v-43.32h43.46Z"/>
      <path class="cls-2" d="M842.49,173.34v-86.69h-43.46v-43.32h-43.46V0h-217.33v43.32h-43.46v43.32h-43.46v130.03h-43.49v130h43.49v-43.36h43.46v43.36h-43.46v86.65h43.46v-43.32h43.46v43.32h43.46v-43.32h43.46v43.32h43.49v-43.32h43.46v43.32h43.46v-43.32h43.46v43.32h43.46v-86.65h-43.46v-43.36h43.46v43.36h43.49v-130h-43.49v-43.34ZM799.03,173.34h-43.46v43.34h-86.92v-43.34h-43.49v43.34h-86.92v-43.34h-43.46v-43.32h43.46v-43.37h86.92v43.37h43.49v-43.37h86.92v43.37h43.46v43.32Z"/>
    </g>
  </g>
</svg>