<?xml version="1.0" encoding="UTF-8"?>
<svg id="Layer_2" data-name="Layer 2" xmlns="http://www.w3.org/2000/svg" viewBox="0 0 2692.45 595.84">
  <defs>
    <style>
      .cls-1 {
        fill: #fff;
      }

      .cls-2 {
        fill: #f1b900;
      }
    </style>
  </defs>
  <g id="Layer_1-2" data-name="Layer 1">
    <g>
      <path class="cls-1" d="M580.42,333.48H81.47l41.03-209.09,206.23-34.5,205.68,35.02,46,208.57Z"/>
      <path class="cls-2" d="M298.84,178.77v59.57h-59.76v-59.57h59.76Z"/>
      <path class="cls-2" d="M478.16,178.77v59.57h-59.76v-59.57h59.76Z"/>
      <path class="cls-2" d="M597.67,238.34v-119.2h-59.76v-59.57h-59.76V0H179.32v59.57h-59.76v59.57h-59.76v178.8H0v178.75h59.81v-59.63h59.76v59.63h-59.76v119.15h59.76v-59.57h59.76v59.57h59.76v-59.57h59.76v59.57h59.81v-59.57h59.76v59.57h59.76v-59.57h59.76v59.57h59.76v-119.15h-59.76v-59.63h59.76v59.63h59.81v-178.75h-59.81v-59.6ZM537.92,238.34h-59.76v59.6h-119.52v-59.6h-59.81v59.6h-119.51v-59.6h-59.76v-59.57h59.76v-59.63h119.51v59.63h59.81v-59.63h119.52v59.63h59.76v59.57Z"/>
      <g>
        <path class="cls-2" d="M1026.34,291.77h-53.7v-35.8h-135.32v-51.91h189.02v87.71ZM891.38,347.62v-55.85h81.27v55.85h-81.27v54.77h134.97v51.91h-189.02v-106.68h54.06Z"/>
        <path class="cls-2" d="M1134.45,255.61v146.78h27.21v51.91h-108.12v-51.91h26.85v-146.78h-26.85v-51.91h108.12v51.91h-27.21Z"/>
        <path class="cls-2" d="M1385.05,255.61v130.31h-134.97v68.38h-54.06v-250.6h134.97v51.91h-80.91v78.04h80.91v-78.04h54.06Z"/>
        <path class="cls-2" d="M1693.29,298.93v103.46h-54.06v-51.55h-134.97v-95.23h54.06v43.32h134.97ZM1504.26,454.3v-51.91h134.97v51.91h-134.97ZM1558.32,255.61v-51.91h134.97v51.91h-134.97Z"/>
        <path class="cls-2" d="M1915.96,255.61v198.69h-54.06v-68.38h-76.61v68.38h-54.06v-250.6h130.67v51.91h-76.61v78.04h76.61v-78.04h54.06Z"/>
        <path class="cls-2" d="M2009.76,255.61v43.68h64.8v51.91h-64.8v103.1h-54.06v-250.6h161.1v51.91h-107.04Z"/>
        <path class="cls-2" d="M2326.22,255.61v198.69h-54.06v-68.38h-76.61v68.38h-54.06v-250.6h130.67v51.91h-76.61v78.04h76.61v-78.04h54.06Z"/>
        <path class="cls-2" d="M2500.93,333.66v52.27h-80.91v68.38h-54.06v-250.6h134.97v51.91h-80.91v78.04h80.91ZM2500.93,333.66v-78.04h54.06v78.04h-54.06ZM2500.93,454.3v-68.38h54.06v68.38h-54.06Z"/>
        <path class="cls-2" d="M2665.24,255.61v146.78h27.21v51.91h-108.12v-51.91h26.85v-146.78h-26.85v-51.91h108.12v51.91h-27.21Z"/>
      </g>
    </g>
  </g>
</svg>