<?xml version="1.0" encoding="UTF-8"?>
<svg id="Layer_2" data-name="Layer 2" xmlns="http://www.w3.org/2000/svg" viewBox="0 0 2732.34 595.84">
  <defs>
    <style>
      .cls-1 {
        fill: #fff;
      }

      .cls-2 {
        font-family: MicroRegular, Micro;
        font-size: 358px;
      }
    </style>
  </defs>
  <g id="Layer_1-2" data-name="Layer 1">
    <path class="cls-1" d="M580.42,333.48H81.47l41.03-209.09,206.23-34.5,205.68,35.02,46,208.57Z"/>
    <path d="M298.84,178.77v59.57h-59.76v-59.57h59.76Z"/>
    <path d="M478.16,178.77v59.57h-59.76v-59.57h59.76Z"/>
    <path d="M597.67,238.34v-119.2h-59.76v-59.57h-59.76V0H179.32v59.57h-59.76v59.57h-59.76v178.8H0v178.75h59.81v-59.63h59.76v59.63h-59.76v119.15h59.76v-59.57h59.76v59.57h59.76v-59.57h59.76v59.57h59.81v-59.57h59.76v59.57h59.76v-59.57h59.76v59.57h59.76v-119.15h-59.76v-59.63h59.76v59.63h59.81v-178.75h-59.81v-59.6ZM537.92,238.34h-59.76v59.6h-119.52v-59.6h-59.81v59.6h-119.51v-59.6h-59.76v-59.57h59.76v-59.63h119.51v59.63h59.81v-59.63h119.52v59.63h59.76v59.57Z"/>
    <text class="cls-2" transform="translate(821.21 454.3)"><tspan x="0" y="0">ZIP SAFARI</tspan></text>
  </g>
</svg>