<?xml version="1.0" encoding="UTF-8"?>
<svg data-bbox="20 27.501 160 144.999" viewBox="0 0 200 200" height="200" width="200" xmlns="http://www.w3.org/2000/svg" data-type="color">
    <g>
        <path fill="#6efc51" d="M161.247 108.654H39.827l9.986-50.884L100 49.375l50.053 8.523z" data-color="1"/>
        <path d="M92.723 71.006v14.497H78.181V71.006z"/>
        <path d="M136.362 71.006v14.497H121.82V71.006z"/>
        <path d="M165.446 85.503V56.495h-14.542V41.998h-14.542V27.501H63.639v14.497H49.097v14.497H34.554v43.511H20v43.499h14.554v-14.51h14.543v14.51H34.554V172.5h14.543v-14.497h14.542V172.5h14.542v-14.497h14.542V172.5h14.554v-14.497h14.543V172.5h14.542v-14.497h14.542V172.5h14.542v-28.995h-14.542v-14.51h14.542v14.51H180v-43.499h-14.554zm-14.542 0h-14.542v14.503h-29.085V85.503H92.723v14.503H63.639V85.503H49.097V71.006h14.542V56.495h29.084v14.511h14.554V56.495h29.085v14.511h14.542z"/>
    </g>
</svg>
